<svg xmlns="http://www.w3.org/2000/svg" xmlns:xlink="http://www.w3.org/1999/xlink" xml:space="preserve" id="Calque_1" x="0" y="0" style="enable-background:new 0 0 598.39 552.37" version="1.1" viewBox="0 0 598.39 552.37"><style>.st0,.st1,.st13,.st15,.st5,.st7,.st8{fill-rule:evenodd;clip-rule:evenodd;fill:#fff}.st1,.st13,.st15,.st5,.st7,.st8{fill:#97bfd6}.st13,.st15,.st5,.st7,.st8{fill:#2e3c52}.st13,.st15,.st7,.st8{fill:#963030}.st13,.st15,.st8{fill:#6d7884}.st13,.st15{fill:#567998}.st15{fill:#e5a7a7}</style><path d="M497.46 307.64c4.16 4.62 8.17 9.77 12.01 15.33 26.01-8.24 74.85 4.72 88.1 31.85-16.13-10.21-48.12-28.65-89.57-18.06 4.14 1.24 10.85 4.7 17.66 8.63 33.53 19.37 57.08 42.53 62.71 82.99-9.53-24.27-36.66-62.24-75.76-71.03 20.38 19.9 36.43 38.95 32.62 83.63-7.05-40.68-31.4-69.63-48.28-78.09-.81.69-1.7 1.4-2.66 2.12 1.64-2.54 3.2-5.39 4.51-8.58 3.86-9.36 5.66-21.59 4.82-30.8-.75-8.36-3.65-14.22-6.16-17.99" class="st0"/><path d="m444.23 431.53 1.04-1.88c2.04-3.75 4.13-7.46 6.11-11.25 4.39-8.39 8.29-17.1 10.87-26.27 9.43 3.23 19.36 3.82 29.05 1.11 44.02-12.3 51.64-52.39 45.92-82.73-5.72-30.31-24.78-50.87-24.74-50.85 10.71 3.17 20.22 8.62 30.26 19.84 7.13-28.37 9.06-59.49-20.57-86.23 9.21-10.61 8.3-16.1 1.07-30.13-.8-21.74-3.51-34.76-24.89-47.42l.03-.18c1.64-2.41 3.4-4.68 4.95-7.32 3.85-6.55 6.56-13.61 8.39-21.03 4.12-16.69 2.71-40.86-5.34-56.66-10.56-20.74-35.42-38.82-56.55-21.74-11.93 9.65-27.89 23.85-41.92 30.24-11.01 5.02-26.04 7.61-38.91 9.78-8.4-4.12-19.35-7.67-25.56-9.56-18.55-5.66-38.37-9.56-57.58-10.35-16.02-.66-32.47.87-47.4 6.33-51.61-.22-82.44 13.03-120.33 41.79-26.65-16.55-59.57-35.7-89.25-26.32l-.63.2-.62.25C-6.84 65.14-1.25 112.3 9.04 141.68c4.65 13.28 9.59 26.51 17.24 38.5 3.32 5.21 7.11 10.23 11.01 15.15-27.36 42.35-19.92 147.01 11.76 197.48l28.28 45.04.78-10.79c12.57 18.71 27.43 35.8 45.38 50.43l34.81 28.38-2.04-12.91c5.2 3.57 10.2 6.76 14.58 9.33 6.29 3.7 12.78 7.1 19.45 10.01l48.86 21.33-9.91-16.47c7.52 3.08 15.16 6.06 22.61 8.59 11.9 8.66 31.66 21.89 43.83 25.77l2.23.71 2.32.11c9.42.45 25.63-8.98 33.65-13.59 4.27-2.46 9.32-5.43 13.98-8.67 15.74 5.21 34.84 5.71 49.15 1.85 35.22-9.51 49.62-41.15 52.25-75.42.64-5.87-.45-11.74-2.22-17.41-.76-2.37-1.89-5.04-2.81-7.57" class="st1"/><path d="m444.23 431.53 1.04-1.88c2.04-3.75 4.13-7.46 6.11-11.25 4.39-8.39 8.29-17.1 10.87-26.27 9.43 3.23 19.36 3.82 29.05 1.11 44.02-12.3 51.64-52.39 45.92-82.73-5.72-30.31-24.78-50.87-24.74-50.85 10.71 3.17 20.22 8.62 30.26 19.83 7.13-28.37 9.06-59.49-20.57-86.23 9.21-10.61 8.3-16.1 1.07-30.13-.8-21.74-3.51-34.76-24.89-47.42l.03-.18c1.64-2.41 3.4-4.67 4.95-7.32 3.85-6.55 6.56-13.61 8.39-21.03 4.12-16.69 2.71-40.86-5.34-56.66-10.56-20.73-35.42-38.81-56.55-21.73-11.93 9.65-27.89 23.85-41.92 30.24-11.01 5.02-26.04 7.61-38.91 9.78-8.4-4.12-19.35-7.67-25.56-9.56-18.55-5.66-38.37-9.56-57.58-10.35-6.63-.27-13.33-.17-19.97.43 30.86 7.34 74.51 13.8 98.64 36.47 19.31 18.14 20.67 50.81 33.48 71.99 25.61 42.35 42.54 94.58 36.72 148.69-5.83 54.1-34.41 110.08-50.09 144.02-15.68 33.94-18.45 45.84-29.64 60.02-11.2 14.18-34.46 39.86-50.08 46.99-15.61 7.13-23.27 4.39-33.58 1.49 8.7 5.46 17.67 10.41 24.35 12.54l2.23.71 2.32.11c9.42.45 25.63-8.98 33.65-13.59 4.27-2.46 9.32-5.43 13.98-8.67 15.74 5.21 34.84 5.71 49.15 1.85 35.22-9.51 49.62-41.15 52.25-75.42.64-5.87-.45-11.74-2.22-17.41-.77-2.39-1.9-5.06-2.82-7.59" style="fill-rule:evenodd;clip-rule:evenodd;fill:#fff;stroke:#fff;stroke-miterlimit:10"/><path d="M533.06 253.74c-5.21-3.09-10.85-5.54-17.11-7.39l-28.23-8.36 12.1 26.95c1.1 2.44 3.23 4.62 4.88 6.75 2.25 2.9 4.34 5.96 6.25 9.09 5.99 9.78 10.49 20.62 12.6 31.8 5.82 30.85-5.04 58.49-36.47 67.27-6.84 1.91-13.94 1.5-20.78-.84l-13.64-4.68-3.82 13.57c-2.33 8.27-5.9 16.15-9.85 23.7-1.94 3.72-4 7.37-6.01 11.05-.34.62-.69 1.24-1.03 1.87l-2.94 5.38 2.16 5.93c.84 2.3 1.86 4.63 2.59 6.95 1.16 3.71 2.08 7.85 1.66 11.7l-.02.22-.02.22c-2.17 28.34-13.03 55.62-42.48 63.58-12.37 3.34-28.69 2.52-41.13-1.6l-6.6-2.19-5.54 3.86c-4.18 2.91-8.6 5.52-13.02 8.07-4.85 2.79-20.8 11.95-26.23 11.82l-.47-.02-.45-.14c-11.28-3.6-29.82-16.49-39.69-23.67l-1.8-1.31-2.09-.71c-7.34-2.49-14.58-5.33-21.76-8.27l-37.87-15.53 9.09 15.1-9.86-4.31c-6.14-2.68-12.1-5.81-17.89-9.22-4.67-2.74-9.24-5.7-13.7-8.77l-26.21-18.01 1.42 8.99-7.03-5.73c-16.58-13.51-30.58-29.54-42.47-47.24l-22.48-33.46-.63 8.67-5.71-9.1c-14.73-23.46-22.17-57.2-24.93-84.07-2.93-28.53-2.51-74.13 13.23-98.52l5.32-8.24-6.32-7.97c-3.56-4.49-7.06-9.09-10.13-13.92-6.97-10.94-11.54-23.38-15.77-35.49-3.34-9.55-5.73-19.83-6.65-29.83-1.55-16.75.47-36.63 17.78-43.66l.12-.05.12-.04c24.91-7.86 56.57 11.72 77.59 24.78l8.24 5.12 7.45-5.66c36.56-27.76 64.76-39.28 112.13-39.08l2.46.01 2.29-.84c13.22-4.84 27.95-6.1 42.14-5.52 18.09.74 36.57 4.42 54.03 9.74 7.73 2.36 16.11 5.13 23.41 8.71l4.13 2.02 4.43-.75c14-2.36 29.41-4.94 42.26-10.8 16.1-7.34 31.06-20.92 44.75-31.99 13.48-10.9 28.95 4.41 35.21 16.71 6.49 12.74 7.48 33.54 4.18 46.93-1.52 6.15-3.75 12.04-6.94 17.47-1.33 2.27-3 4.4-4.49 6.58l-1.61 2.37-2.22 12.69 8.64 5.12c16.2 9.6 17.1 17.97 17.74 35.52l.12 3.16 1.47 2.85c.75 1.45 4.18 8.17 4.03 9.78-.09 1.01-2.83 4.31-3.45 5.02l-8.8 10.14 10.35 9.34c16.81 15.25 21.35 31.96 19.97 50.38" class="st1"/><path d="M461.61 373.2c-3.88-1.97-2.65-1.34-6.74-.1-2.26.68-4.85 1.39-7.11 1.76-2.24 23.72-19.16 45.65-21.88 54.47-.02 4.84 7.11 16.39 6.02 24.87-5.86 79.11-71.79 64.73-87.35 55.8-7.83 8.05-39.62 25.18-44.16 24.96-9.68-3.09-33.16-19.06-40.91-24.8-10.87-3.53-52.97-20.27-70.98-30.12 1.85 5.13 5.44 11.69 8.25 16.35-28.59-12.48-57.81-37.27-65.78-47.89-2.18 4.04 2.61 11.78 3.22 15.67-37.8-30.81-57.83-72.07-67.42-93.59-2.05 2.53-2.56 6.51-3.06 13.38-29.49-46.98-38.28-146.69-4.54-188.7-18.19-22.71-22.57-26.93-33.71-58.77-6.92-19.78-14.56-59.52 9.24-69.18 26.26-8.3 62.28 16.83 85.09 30.89 35.69-28.51 64.1-46.44 122.47-45.54 46-19.04 118.48 9.27 124.12 14.36 51.03-8.9 52.16-10.13 94.72-44.54 10.89-8.8 23.97 3.96 29.82 15.45 6.02 11.82 7.02 31.78 3.88 44.47-4.36 17.64-12.3 23.26-13.12 26.81l-2.95 16.94c9.19 1.86 26.18 11.89 26.67 25.31-5.41-1.76-10.73-3.55-14.01-2.29 5.55 6.3 19.82 19.76 20.18 35.95-3.86-3.28-12.37-7.98-16.95-9.4 2.39 5.05 6.45 16.88 6.36 22.54 9.82 1.68 30.26 19.69 29.68 30.97-3.88-2.55-9.13-5.26-11.96-5.01 2.9 4.52 11.94 18.4 11.07 28.01-11.45-7.17-20.72-12.09-29.39-13.18.49 2.78 2.11 6.78 2.59 10.12 1.46 10.04-.69 19.05-3.19 28.09 5.21 3.99 11.66 11.52 16.11 20.55 16.13 32.83-13.09 97.04-54.28 75.39" style="fill-rule:evenodd;clip-rule:evenodd;fill:#364359"/><path d="m442.96 128.18-12.18 9.35c16.28.46 34.24-12.83 34.33-12.85-2.29 8.27-13.67 15.34-15.58 17.89 5.8-2.63 10.03-3.62 21.14.03-6.2.14-10.01.89-13.56 3.59 2.97.32 16.27 5.51 20.41 9.55-7.58-1.16-10.12-1.04-14.53-.1 2.52 3.09 23.5 20.8 22.52 45.95-1.99.32-8.76 1.61-10.79 7.44 5.14-1.66 15.35-2.04 24.01 3.89-9.57-.6-21.17-.3-29.18 5.82 13.66-.97 25.06-.4 37.91 9.7-13.81-4.16-29.83-10.03-48.26 2.12-16.86 13.25-12.37 37.37-1.72 54.02 5.13 8.01 12.53 12.86 16.42 19.32-4.72 1.86-10.64-.88-15.1-2.14-23.2-6.53-30.95 2.48-34.44 2.21-5.3-3.04-23.64-5.22-27.93 1.19 2.07 1.31 29.42 8.31 40.1 23.68 6.97 10.04 17.52 9.14 14.67 22.94-16.43 18.68-61.8 4.25-70.66 3.58-20.17-1.52-31.88 6.01-45.66-.56l-2.43-1.53c5.18.4 10.62-.68 14.27-3.48 1.52-1.17 4.73-1.15 6.58-2.6-49.03-8.22-89.34 23.92-101.55 38.4 23.26-39.08 67.31-53.48 112.34-46.86-39.66-25.4-105.92-8.95-133.06 8.87 33.12-33.67 100.24-31.6 131.51-23.83-26.48-21.32-94.36-17.41-112.81-12.06 18.26-10.96 67.47-14.75 110.37-1.7-4.87-7.12-13.39-9.75-18.23-11.21 5.31-6.46 20.25-10.87 22.45-10.66-16.45-7.98-35.1 2.96-39.8 6.38-10.3.99-75.8-14.7-120.46 40.93 27.01-12.75 58.17-24.06 88.62-21.77-39.52 7.34-65.8 17.28-84.95 58.53 18.04-13.62 48-37.63 113.01-38.96-57.82 4.29-84.88 38.93-85.93 85.71-3.25-1.01-9.58-5.3-11.6-7.37.34-5.15-9.14-27.27-26.13-30.68 3.08 4.54 6.43 10.51 6.65 15.49-22.55-14.95-45.27-72.33-45.5-96.4-9.64.27-18.08 43.92-18.31 49.94-20.81-41.78-21.15-64.31-3.83-98.69-14.64-.42-27.54 15.9-33.5 30.96l-.49.78c-1.81-17.98 1.3-39.26 7.5-50.74 5.19 2.94 31.47 7.53 34.68 3.52-20.94-8.67-55.72-25.23-85.83-69.67-10.7-15.78-19.53-34.17-22.53-53.13-5.17-32.78 8.79-35.86 35.84-19.91 10.87 6.4 23.75 15.37 34.69 22.78 33.28 22.53 72.2 38.88 112.13 37.84 2.61-.95-68.08-21.42-73.1-45.48 13.78-11.65 23.73-15.62 42.72-23.22 46.09-18.44 94.23-16.65 143.4 6.13-2.35-9.48-26.54-21.98-34.84-25.15 39.81 3.06 80.64 25.47 108.68 52.07-1.74-15.7-14.57-27.03-22.15-32.71 29.23-.18 52.11-17.96 73.1-35.34 7.56-6.26 13.11-8.91 15.5-2.92 10.42 26.16-9.96 64.31-28.93 81.12" class="st0"/><path d="M370.08 227.16c10.22 4.73 18.45 11.02 25.33 20.41 6.89 9.39 12.43 21.88 17.03 31.8 4.6 9.92 8.26 17.27 12.1 21.32.94.99 1.89 1.78 2.8 2.42-1.27.56-2.23.94-2.99.88-5.01-2.87-21.61-4.97-27.07.19-1.5-1.1-3.58-2.71-7.91-4.96-5.98-3.1-16.26-7.41-21.73-9.69-5.47-2.28-6.15-2.53-3.97-3.54 2.18-1.01 7.21-2.79 14.03-3.38 6.81-.59 15.41 0 20.1.46 4.69.47 5.48.82 3.71-.13-1.76-.96-6.08-3.22-10.4-9.6-4.33-6.39-8.67-16.9-13.3-24.71-4.63-7.81-9.53-12.93-16.79-17.61s-16.86-8.93-21.52-11.35-4.37-3.01 1.88-1.72c6.26 1.29 18.48 4.47 28.7 9.21" class="st1"/><defs><path id="SVGID_1_" d="M369.71 270.38c-4.44 2.69-11.95 5.66-19.18 7.13-7.23 1.46-14.18 1.41-20.4.08-6.22-1.33-11.71-3.95-16.5-6.73-4.8-2.78-8.91-5.73-10.71-10.32-1.8-4.59-1.3-10.83 2.02-15.86 3.32-5.03 9.45-8.86 14.84-10.47 5.39-1.6 10.03-.98 17.66 1.27 7.64 2.25 18.27 6.14 25.34 10.98 7.07 4.84 10.59 10.64 11.66 14.74 1.08 4.1-.29 6.49-4.73 9.18"/></defs><clipPath id="SVGID_00000179624295229420841650000012742599903557470396_"><use xlink:href="#SVGID_1_" style="overflow:visible"/></clipPath><linearGradient id="SVGID_00000121257389861990411740000001642605406979910816_" x1="1593.389" x2="1586.089" y1="272.18" y2="238.68" gradientTransform="matrix(-1 0 0 1 1928.133 0)" gradientUnits="userSpaceOnUse"><stop offset="0" style="stop-color:#f0c62f"/><stop offset="1" style="stop-color:#d34141"/></linearGradient><path d="M301.12 232.6h74.4v46.36h-74.4z" style="clip-path:url(#SVGID_00000179624295229420841650000012742599903557470396_);fill:url(#SVGID_00000121257389861990411740000001642605406979910816_)"/><path d="M382.91 256.33c-7.02-8.73-17.29-18.46-34.29-24.36-21.41-7.43-35.38-4.4-53.72 6.12-9.98 5.72-9.65 5.09-19.02 12.01 7.56 1.35 13.44 6.07 17.75 9.9 8.35 7.41 10.96 13.78 28.6 17.01-8.83-7.08-13.36-10.36-14.77-19.39.62-6.47 9.3-16.66 16.99-16.07-3.84 6.47-5.21 11.95-2.42 19.7 5.06 14.04 23.55 17.86 32.91 9.19 4.73-4.37 6.19-11.8 4.49-20.7 1.06.81 2.83 3.32 3.58 4.59.92 1.56 1.52 3.56 1.77 5.69.57 4.84-.2 9.64-4.25 12.59-2.96 2.15-5.81 2.99-7.66 5.26 15.16-2.34 29.48-.04 44.17 4.7 3.31 1.07 5.25 2.13 6.17 2.76.91-7.55-9.12-12.49-11.85-16.28-2.68-3.74-3.38-6.41-8.45-12.72" class="st5"/><path d="M55.63 274.35c2.52-2.63 10.89-11.99 20.49-12.85-6.94 12.86-10.69 31.04-7.32 46.09 2.45-2.2 4.51-7.64 7.65-10.86-.3 7.72 2.14 42.6 7.07 48.05.1-.36 2.19-4.06 2.76-5.3 1.42-3.08 3.57-5.74 5.3-8.65 1.72-2.9 6.7-11.28 8.73-13.18-.4 10.41 7.11 73.16 35.72 98.7-5.49-12.98-8.45-31.29-5.45-45.48 13.84 34.47 38.68 66.88 70.98 86.33-7.19-8.83-21.98-50.54-21.34-60.4 9.47 30.55 90.18 96.25 123.18 110.85 5.53 2.44 20.71-5.37 26.07-8.45-3.86 8.13-18.09 16.73-28.08 19.48-65.93-39.22-86.09-65.66-95.95-75.32 2.14 12.99 18.1 34.36 27.89 41.87-29.47-8.58-83.54-50.39-93.15-62.39.21 4.71 2.34 12.32 5.46 19.4-26.66-27.44-40.72-43.03-58.6-78.51.15 3.96-1.24 14.13.05 20.79-9.05-10.33-19.97-53.85-18.75-66.47-1.62 3.01-4.32 12.06-5.69 16.67-3.31-18.78-4.98-35.08-.63-56.47-7.72 3.69-8.88 12.33-11.45 17.64-3.18-16.62-.7-72.79 20.29-85.23-7.22 12.44-15.01 32.69-15.23 63.69" class="st1"/><path d="M413.53 478.69c-9.55 31.34-76.86 38.48-97.25-26.13-6.2.51-7.38 8.53-6.96 13.09-27.16-22.38-44.48-29.46-74.53-46.68-.77-5.58 19.5-23.67 26.26-26.27 19.7 40.76 42.84 34.46 62.94 60.46 15.81 34.97 59.23 49.94 89.54 25.53" class="st0"/><path d="M363.88 425.67c-5.31-24.72-1.46-31.52-23.2-53.94 21.1 5.12 27.57 28.3 32.21 46.23 2.44 9.41 5.55 18.01 12.63 24.29 5.81 5.16 14.81 10.47 1.72 15.91-2.23.93-7.63 2.6-10.49 2.44 2.64-3.46 3.95-9.05 1.75-14.83-5.39.03-18.49-.62-22.98 8.36-3.67-3.05-10.1-20.58-11.76-25.91-5.83-18.66-6.83-37.19-30.43-48.59-5.13-2.48-22.16-9.76-25.54-15.35 9.71-2.81 23.6 1.38 35.03 7.77 29.92 16.74 28.06 47.28 41.06 53.62" style="fill-rule:evenodd;clip-rule:evenodd;fill:#d8485d"/><path d="M476.25 355.8c-1.82-10.12 3.82-13.92 6.32-21.83 4.98-5.91 10.71-23.53 5.28-30.17-4.22-5.16-24.01-26.59-24.24-31.92 16.13.64 30.41 21.53 37.4 31.3 9.21 18.81 3.39 51.45-24.76 52.62" class="st0"/><path d="M361.79 463.69c.23-5.84-5.16-8.85 11.5-11.42-.56 6.48-3.17 9.07-8.58 12.91 17.37 6.02 25.3.38 34.79 2.25-10.39 10.09-25.54 8.45-36.53 3.9-20.35-8.43-26.63-28.92-42.66-41.54-12.43-9.78-31.04-18.55-39.42-32.45-5.14-8.52-9.57-22.5.77-28.45-1.31 6.87-2.26 15.67 9.56 29.39 12.7 14.73 31.03 21.06 43.92 36.74 3 3.65 6.64 8.57 9.47 12.44 6.3 7 9.12 11.25 17.18 16.23" class="st7"/><path d="M408.56 416.83c4.02 1.17 7.26.05 10.42-1.77-1.83 6.59-3.3 10.66-6.26 13.74-2.7-2.03-9.1-7.44-9.5-13.25 11.72-9.13 20.72-16.7 24.01-38.49 2.48.19 2.96-.58 4.3.2-1.15 15.91-14.35 35.76-22.97 39.57" class="st0"/><path d="M463.72 336.22c.58-2.95 1.85-4.75.98-8.19-.98-3.85-6.1-9.15-9.23-11.45-2.12-1.56-4.53-2.52-6.51-3.91 6.01.17 16.33 4.56 24.14 1.38 2.44-.99 3.5-1.97 5.64-3.1-.19 4.93-1.81 12.51-4.27 16.1-2.31 3.38-6.28 8.48-10.75 9.17" class="st8"/><path d="M380.39 370.94c-.67 17.31 1.94 31.27 7.41 43.57 3.18 7.14 7.16 12.05 10.34 15.74 3.86 4.48 9.97 11 6.3 17.02.05-3.08-2.43-7.09-5.47-11.16-6.79-9.11-10.57-11.86-15.25-22.36-5.31-11.91-7.15-29.15-7.24-42.98 2.31.18 1.83 0 3.91.17" class="st7"/><defs><path id="SVGID_00000059275980291630694860000003171957727800374918_" d="M470.93 257.46c3.61-11.84 3.24-14.95 1.88-24.03 2.2-.87 4.72-.92 7.55-1.48 1.73 3.67.45 24.21-9.43 25.51"/></defs><clipPath id="SVGID_00000123405880416433542240000010405655751393623215_"><use xlink:href="#SVGID_00000059275980291630694860000003171957727800374918_" style="overflow:visible"/></clipPath><linearGradient id="SVGID_00000077293745068679953230000008680821363083063451_" x1="1453.226" x2="1451.616" y1="255.401" y2="244.631" gradientTransform="matrix(-1 0 0 1 1928.133 0)" gradientUnits="userSpaceOnUse"><stop offset="0" style="stop-color:#f0c62f"/><stop offset="1" style="stop-color:#da6b33"/></linearGradient><path d="M470.93 231.95h11.16v25.51h-11.16z" style="clip-path:url(#SVGID_00000123405880416433542240000010405655751393623215_);fill:url(#SVGID_00000077293745068679953230000008680821363083063451_)"/><path d="M485.54 267.07c-2.4-.13-4.07-1.48-5.74-5.53 2.01-2.3 6.98-16.66 5.26-25.89 5.67 7.53 2.46 27.75.48 31.42M405.25 461.94c-.91-4.14-.99-5.78 1.43-8.57 1.6-1.85 4.52-3.69 7.14-3.92-1.47 5.29-4.49 10.15-8.57 12.49M464.77 352.84c.11-1.85.55-2.6.63-5.03.07-1.98.15-3.95.22-5.93l3.9-1.82c-.67 2.96-2.51 10.49-4.75 12.78" class="st0"/><path d="M459.56 333.78c-2.58-1.97-6.77-7.03-8.55-9.99 1.84.57 4.21 2.36 5.65 3.57 2.31 1.95 3.04 2.65 2.9 6.42" class="st8"/><defs><path id="SVGID_00000080188967117712789720000007031142870373853607_" d="M346.61 244.33c-7.18-.55-13.23 4.93-13.52 12.25-.28 7.32 5.31 13.7 12.49 14.25 7.18.55 13.23-4.93 13.52-12.25.28-7.32-5.31-13.7-12.49-14.25"/></defs><clipPath id="SVGID_00000046331605878628169140000002590956358137200318_"><use xlink:href="#SVGID_00000080188967117712789720000007031142870373853607_" style="overflow:visible"/></clipPath><linearGradient id="SVGID_00000061442298382849653090000000060672443435213200_" x1="1581.438" x2="1582.398" y1="249.254" y2="262.634" gradientTransform="matrix(-1 0 0 1 1928.133 0)" gradientUnits="userSpaceOnUse"><stop offset="0" style="stop-color:#526575"/><stop offset="1" style="stop-color:#2e3c52"/></linearGradient><path d="M332.81 243.78h26.57v27.6h-26.57z" style="clip-path:url(#SVGID_00000046331605878628169140000002590956358137200318_);fill:url(#SVGID_00000061442298382849653090000000060672443435213200_)"/><path d="M225.46 359.53c-4.21 2.7-7.95 5.37-11.32 7.86 1.24 3.69 2.66 7.27 4.28 10.62 5.03 10.43 11.93 18.64 15.32 22.59 1.27 1.48 2.05 2.36 2.46 2.72l.13-.78c-.13-.37-.32-.83-.54-1.39-1.22-3.08-3.55-8.92-5.88-17.96-1.76-6.79-3.52-15.39-4.45-23.66m-17.91-25.7c.24 3.1.58 6.32 1.05 9.64.88 6.19 2.21 12.74 4.04 19.1 3.78-6.73 7.83-12.47 12.18-17.39.25-7.51 1.36-13.52 2.01-16.72.38-1.86.6-2.78.73-3.09-6.84 2.61-13.54 5.48-20.01 8.46zm85.11-20.14c-21.89-1.64-44.15 3.74-64.97 11.64.03.15.03.51.01.97-.06 1.47-.26 3.96-.01 9.26.08 1.77.22 3.84.41 6.12 16.62-16.7 37.48-22.95 64.56-27.99zm28.06 19.58c-43.73.89-71.61 12.05-90.66 23.41l.05.3c1.47 7.99 3.71 15.85 6.56 23 1.06 2.67 2.21 5.25 3.41 7.74 10.49-30.36 36.67-51.19 80.64-54.45zm62.54-247.95c7.58 5.68 20.41 17.01 22.15 32.71-28.04-26.6-68.87-49.02-108.68-52.07 8.3 3.18 32.49 15.67 34.84 25.15-49.17-22.78-97.31-24.57-143.4-6.13-18.99 7.6-28.94 11.58-42.72 23.22 5.03 24.06 75.71 44.53 73.1 45.48-.77.02-1.54.03-2.31.04 13.09 3.67 25.17 6.03 31.39 7.21 6.64 1.26 6.6 1.16 1.73 3.05-4.87 1.89-14.57 5.75-29.28 6.04-14.71.3-34.43-2.97-52.05-8.16-17.62-5.19-33.14-12.31-48.01-20.79-14.87-8.49-29.08-18.34-37.39-24.24-8.31-5.9-10.71-7.85-13.65-9.44-2.94-1.59-6.41-2.82-10.2-2.95-3.79-.13-7.91.86-9.14 5.5-1.24 4.64.41 12.95 3.65 22.86 3.24 9.91 8.07 21.43 15.49 33.18 7.42 11.76 17.43 23.76 28.13 34.89 9.78 10.17 20.13 19.61 26.99 25.38 7.6 4.08 14.52 7.12 20.36 9.54-2.61 3.26-20.49.83-29.86-1.77l-.02.05c-1.48 3-3.57 8.06-4.77 12.84-1.2 4.78-1.5 9.27-1.54 11.33-.04 2.06.2 1.68.9.68.7-1 1.86-2.62 3.63-4.57 1.77-1.95 4.15-4.22 8.51-6.7 4.36-2.47 10.72-5.14 16.07-6.36 5.35-1.21 9.7-.97 11.87-.84l2.17.12-2.1 3c-2.1 3-6.29 8.99-9.07 18.39-2.78 9.39-4.16 22.19-3.85 31.84.31 9.65 2.3 16.17 3.3 19.16 1.01 2.99 1.03 2.47 1.47.13.44-2.34 1.31-6.48 2.89-11.05 1.59-4.57 3.89-9.57 7.3-14.07 3.41-4.5 7.92-8.5 10.15-10.43 2.23-1.93 2.18-1.81 2.08-1.46-.1.34-.26.9-.47 3.63-.22 2.73-.49 7.62.1 13.78.6 6.17 2.07 13.61 3.84 19.47a75.607 75.607 0 0 0 4.85 12.13c1 1.99.92 1.67.73.56-.2-1.11-.52-3.02-1.18-7.02-.66-4-1.66-10.09-1.71-18.25-.06-8.17.82-18.41 2.83-27.53 2-9.13 5.13-17.13 8.96-22.89 3.83-5.76 8.37-9.27 10.39-10.83 2.02-1.56 1.52-1.16.61.18-.91 1.33-2.23 3.6-4.41 9.88-2.18 6.28-5.22 16.58-6.33 29.44-1.11 12.86-.3 28.28 2.86 41.35 3.17 13.08 8.69 23.81 11.45 29.18 2.76 5.37 2.76 5.37 2.38 2.71-.38-2.66-1.14-7.99-1.43-15.44-.28-7.46-.09-17.05 1.63-27.3 1.72-10.24 4.96-21.14 9.1-29.22 4.14-8.08 9.19-13.36 11.64-15.82 2.45-2.47 2.3-2.13 1.44-.28-.86 1.84-2.45 5.19-4.45 10.41-2.01 5.22-4.44 12.32-6.08 18.86-1.64 6.54-2.49 12.53-2.87 20.64-.24 5.16-.29 11.17.12 17.8 44.52-50.87 107.07-35.98 117.12-36.95 1.79-1.3 5.59-3.68 10.51-5.71-2.45-.1-5.29-.57-8.62-1.54-5.63-1.64-12.69-4.73-18.07-8.85-5.38-4.12-9.1-9.28-12.08-13.7-2.98-4.42-5.21-8.1-8.39-10.49-3.18-2.39-7.31-3.48-9.24-4.13-1.92-.65-1.64-.86 3.13-4.89 4.77-4.03 14.03-11.88 23.73-16.51 9.7-4.63 19.83-6.05 30.41-5.37 10.58.68 21.6 3.46 31.93 8.31 10.33 4.85 19.96 11.78 24.61 15.07 4.65 3.3 4.31 2.96 2.6.49-1.71-2.48-4.78-7.1-10.24-12.15-5.46-5.05-13.3-10.52-22.62-14.75s-20.12-7.2-31.14-8.45c-11.02-1.24-22.26-.74-31.75 1.09-9.49 1.84-17.22 5.02-20.96 6.49-3.73 1.47-3.46 1.23-2.63.43.82-.79 2.2-2.13 6.38-4.95 4.18-2.82 11.17-7.11 20.17-9.53 9.01-2.42 20.03-2.98 30.8-1.71 10.78 1.27 21.31 4.36 29.93 8.42 8.62 4.06 15.33 9.1 18.42 11.35 3.08 2.25 2.53 1.73 1.26-.02-1.27-1.74-3.27-4.7-7.91-8.9-4.64-4.19-11.91-9.62-21.35-14.12-9.44-4.5-21.05-8.07-31.41-9.39-10.36-1.32-19.46-.4-23.73-.04-4.27.36-3.72.15-.56-1.3s8.92-4.13 17.86-4.95c8.93-.81 21.04.25 32.69 3.93 11.65 3.68 22.85 9.98 31.89 17.26 9.05 7.28 15.94 15.53 19.39 19.65 3.45 4.13 3.45 4.13 2.75 1.62-.69-2.51-2.08-7.53-3.46-14.17-1.37-6.64-2.72-14.91-2.61-21.2.11-6.29 1.69-10.6 5.23-12.98 3.55-2.38 9.06-2.84 15.39.28s13.46 9.81 18.44 17.5c4.98 7.69 7.81 16.37 9.23 20.72 1.42 4.34 1.42 4.34 1.54 3.41.12-.93.37-2.8 1.56-6.68 1.18-3.88 3.31-9.77 6.17-13.92 2.87-4.15 6.48-6.55 8.22-7.66 1.74-1.12 1.6-.95 1.15-.09-.45.86-1.22 2.43-2.55 5.71-1.34 3.28-3.25 8.26-4.29 13.16-1.05 4.9-1.23 9.71-1.25 11.88-.02 2.17.13 1.7 1.43-.57 1.3-2.27 3.74-6.34 6.94-9.87 3.2-3.53 7.14-6.52 9.09-7.95 1.95-1.43 1.9-1.3 1.93-1.5.03-.2.14-.71-.41-4.75-.55-4.03-1.75-11.59-5.59-19.93-3.83-8.35-10.3-17.49-16.79-24.5-6.49-7.01-13-11.9-16.25-14.34-1.77-1.33-2.58-1.94-2.89-2.27-.58.02-1.15.02-1.72 0l3.9-3c.31-.37.65-.79 1.05-1.28 2.15-2.65 5.73-7.22 10.37-16.27 4.65-9.04 10.36-22.56 12.25-34.47 1.89-11.91-.05-22.23-4.55-27.71-.46-.56-.95-1.07-1.45-1.54-19.91 16.31-41.71 31.91-69.09 32.08z" class="st1"/><path d="M97.19 227.78c-4.12 1.82-7.84 5.28-10.87 8.48.2-5.08 2.49-9.86 3.73-11.77 1.03.75 4.8 2.38 7.14 3.29M394.67 373.72c.02 1.54-.43 3.89-1.57 6.37-1.14 2.48-2.98 5.08-4.37 6.68-1.39 1.6-2.34 2.21-2.65 2.29-.31.08.03-.37.23-2.2s.28-5.03.09-7.65c-.19-2.62-.63-4.65-.72-5.87-.08-1.22.19-1.64.91-2.08.72-.44 1.88-.9 3.14-.99 1.26-.09 2.61.19 3.53.69.92.5 1.4 1.22 1.41 2.76" class="st0"/><path d="M474.79 372.45c.02 1.54-.43 3.89-1.57 6.37-1.14 2.48-2.98 5.08-4.37 6.68-1.39 1.6-2.34 2.21-2.65 2.29-.31.08.03-.37.23-2.2s.28-5.03.09-7.65c-.19-2.62-.63-4.65-.72-5.87-.08-1.22.19-1.64.91-2.08.72-.44 1.88-.9 3.14-.99 1.26-.09 2.61.19 3.53.69.92.51 1.39 1.22 1.41 2.76" style="fill:#364359"/><path d="M352.41 253.2c-3.87-.3-7.17 3.53-7.37 8.55-.19 5.02 2.79 9.33 6.66 9.62 3.87.3 7.17-3.53 7.37-8.55.19-5.01-2.79-9.32-6.66-9.62" class="st0"/><defs><path id="SVGID_00000121268621292292883270000012441963423386377145_" d="M453.04 249.49c1.63 3.83 4.63 6.52 8.17 6.79 5.5.42 10.19-5.17 10.47-12.49.14-3.73-.88-7.18-2.65-9.73-2.26.58-5.25 1.37-7.84 2.79-3.41 1.86-6.12 4.82-7.48 9.6-.26.96-.48 1.99-.67 3.04"/></defs><clipPath id="SVGID_00000086681241451680708770000015564409788156391823_"><use xlink:href="#SVGID_00000121268621292292883270000012441963423386377145_" style="overflow:visible"/></clipPath><linearGradient id="SVGID_00000034053323490848160640000012549110440396485031_" x1="1464.949" x2="1465.889" y1="234.767" y2="248.147" gradientTransform="matrix(-1 0 0 1 1928.133 0)" gradientUnits="userSpaceOnUse"><stop offset="0" style="stop-color:#566b79"/><stop offset="1" style="stop-color:#364359"/></linearGradient><path d="M453.04 234.06h18.79v22.64h-18.79z" style="clip-path:url(#SVGID_00000086681241451680708770000015564409788156391823_);fill:url(#SVGID_00000034053323490848160640000012549110440396485031_)"/><path d="M467.39 240.39c-2.62-.2-4.85 2.39-4.98 5.78-.13 3.39 1.89 6.31 4.5 6.51 2.62.2 4.85-2.39 4.98-5.78.13-3.39-1.88-6.3-4.5-6.51" class="st0"/><path d="M221.22 327.88c-2.81 1.15-5.6 2.34-8.34 3.55l.06 1.9c.39 9.99 1.94 18.59 3.07 23.63.75-1.18 1.52-2.33 2.29-3.44l.13-2.83c.26-5.46.67-13.78 2.42-21.3.12-.51.24-1.01.37-1.51m16.22 24.67c1.91 7.28 4.53 15.03 8.12 22.73 4.38-8 10.11-15.1 17.26-21.09-.56-3.8-1-7.73-1.32-11.72-9.19 2.99-17.14 6.46-24.06 10.08zm-4.66-29.09c.24 3.72.64 8.01 1.34 12.77 7.96-6.49 16.83-11.08 26.8-14.6.03-1.5.08-3 .14-4.48.02-.49.04-.99.07-1.48-9.6 1.79-19.1 4.51-28.35 7.79zm-86.69-49.5c-6.01 16.11-6.31 27.56-6.38 36.22-.01 1.18-.02 2.31-.02 3.39.8 2.3.85 1.69 1.26-.47.44-2.34 1.31-6.48 2.89-11.05 1.59-4.57 3.89-9.57 7.3-14.07 3.41-4.5 7.92-8.5 10.15-10.43 2.23-1.93 2.18-1.81 2.08-1.46-.1.34-.26.9-.47 3.63-.22 2.73-.49 7.62.1 13.78.6 6.17 2.07 13.61 3.84 19.47 1.46 4.81 3.12 8.56 4.22 10.84.14-1.92.11-4.03-.01-6.32-.65-3.98-1.47-9.69-1.53-17.11-.01-1.52.01-3.1.07-4.74-.33-7.74-.37-15.78.2-22.72.86-10.52 3.1-18.51 7.33-25.33 4.22-6.83 10.43-12.49 15.44-15.94 5.01-3.44 8.84-4.66 10.94-5.42 2.1-.76 2.47-1.06 2.1-.51-.37.55-1.48 1.96-4.02 6.24-2.54 4.28-6.52 11.43-9.57 22.04-3.05 10.6-5.18 24.65-5.33 36.4-.15 11.75 1.69 21.19 2.63 25.34.94 4.15.98 3.02 1.42-1.51.44-4.53 1.27-12.45 3.75-20.64 2.47-8.19 6.59-16.65 11.69-23.41 5.1-6.76 11.19-11.82 16.45-15.67 5.25-3.85 9.67-6.5 11.79-7.66 2.12-1.16 1.94-.84.79 1.49s-3.26 6.65-6.83 14.59c-3.57 7.94-8.59 19.49-11.68 32.15-2.44 10.01-3.67 20.72-3.85 30.61 4.33-4.31 8.79-8.07 13.33-11.34.57-1.2 1.11-2.29 1.61-3.23 2.13-4.06 3.33-5.45 3.93-5.16.45.22.55 1.39.62 4.27 10.15-6.28 20.54-10.34 30.53-12.9.99-6.98 2.24-13.2 3.57-18.18 2.5-9.36 5.24-14.33 6.52-16.69 1.28-2.36 1.09-2.11-.48-1.18-1.58.93-4.54 2.55-8.34 5.06-3.79 2.52-8.41 5.94-12.82 10.12-4.41 4.18-8.6 9.12-10.63 11.42-2.03 2.3-1.88 1.96-1.26-1.02.62-2.98 1.72-8.6 4.51-18.06 2.79-9.46 7.26-22.76 12.54-33.9 5.27-11.13 11.34-20.1 13.96-24.3 2.62-4.19 1.79-3.62-1.65-2.3-3.44 1.32-9.49 3.37-18.7 8.57-9.22 5.2-21.6 13.55-29.45 19.88-7.86 6.33-11.19 10.64-12.41 11.46-1.22.83-.33-1.82 1.21-6.18 1.53-4.36 3.7-10.42 8.58-18.08 4.87-7.65 12.45-16.9 18.62-22.92 6.17-6.02 10.95-8.81 12.96-10.22 2.01-1.4 1.26-1.42-5.21-.03-6.48 1.39-18.69 4.18-31.12 8.67s-25.08 10.67-37.26 24.14c-12.18 13.49-23.9 34.26-29.91 50.37z" class="st13"/><path d="M262.26 342.24c15.55-4.95 34.65-8.48 58.47-8.97-10.73.8-20.4 2.64-29.04 5.41-9.52 1.1-20.29 2.19-29.43 3.56m30.4-28.55c-4.43.82-8.69 1.68-12.8 2.61-3.4.22-6.72.48-9.83.78-11.4 1.1-20 2.76-26.15 3.08-.42.02-.82.04-1.21.05 16.35-4.93 33.28-7.77 49.99-6.52zm54.06 36.12c1.52-1.17 4.73-1.15 6.58-2.6-28.54-4.79-54.12 4.11-72.93 15.23l.52-.4c6.53-5.05 14.06-9.65 22.2-13.04 8.14-3.39 16.89-5.57 27.73-6.49 10.84-.92 23.76-.59 30.55-.33 6.79.26 7.44.44 6.87-.14-.57-.58-2.36-1.93-5.59-3.3-.22-.09-.44-.18-.67-.28.7.09 1.4.19 2.11.29-31.41-20.12-79.5-13.98-111.63-1.71.29-.15.59-.3.88-.44 8.68-4.29 19.12-7.83 33.28-10.32 14.17-2.49 32.07-3.92 46.24-3.52 14.18.4 24.63 2.63 29.98 3.87 5.35 1.24 5.61 1.51 4.28.55-1.03-.74-3-2.2-6.78-3.91.75.17 1.49.34 2.2.52-26.48-21.32-94.36-17.41-112.81-12.06l.05-.03c3.81-1.19 8.21-2.34 12.92-3.29 12.17-2.46 26.44-3.61 39.62-3.57 13.18.04 25.28 1.27 37.32 4.34 12.05 3.07 24.05 7.99 32.3 11.21 8.26 3.22 12.78 4.75 16.78 5.94 4 1.18 7.49 2.02 8.86 2.5 1.37.48.61.6-1.91.55-2.53-.04-6.83-.24-10.98-.51s-8.14-.61-10.16-.72c-2.02-.11-2.07 0-.6.81 1.47.81 4.44 2.31 9.04 4.09 4.6 1.78 10.81 3.84 15.16 5.09 4.35 1.26 6.84 1.71 6.99 2.01.14.3-2.06.43-5.05.4-2.99-.03-6.77-.23-12.06-1.15-5.29-.91-12.09-2.53-15.95-3.46-3.86-.93-4.77-1.18-2.82.16 1.95 1.33 6.77 4.25 14.27 7.08 7.5 2.84 17.69 5.59 26.58 7.35 8.89 1.76 16.47 2.51 22.21 2.58 5.74.07 9.64-.55 10.68-.3 1.05.26-.76 1.39-5.09 2.35-4.33.96-11.18 1.75-18.89 1.44-7.71-.31-16.28-1.71-23.79-3.19-7.51-1.48-13.96-3.02-21.82-2.51-7.85.52-17.11 3.1-24.91 3.48-5.32.26-9.96-.49-13.86-1.05 4.48.02 8.95-1.11 12.1-3.52z" class="st1"/><path d="M399.94 113.03c-3.54-3.11-7.25-6.14-11.1-9.08 3.45 2.98 7.43 6.17 11.1 9.08m-16.68-27.71c7.46 5.59 20 16.65 22.06 31.96 4.93 3.9 8.41 6.68 10.05 8.13 1.84 1.62 1.4 1.58 1.78 1.44.38-.15 1.58-.41 3.9-1.89 2.32-1.49 5.77-4.21 10.03-8.93 4.25-4.72 9.31-11.44 12.64-16.73 3.33-5.29 4.93-9.16 4.44-9.51-.49-.34-3.08 2.83-8.04 5.85-4.96 3.02-12.29 5.88-17.44 7.77-5.16 1.89-8.14 2.8-8.13 2.47.01-.33 3.02-1.9 6.63-4.25 3.61-2.36 7.83-5.5 12.36-11.25 4.54-5.75 9.39-14.11 11.99-19.39 2.6-5.28 2.95-7.49 2.87-8.16-.08-.66-.6.22-3.87 3.32-3.27 3.11-9.28 8.44-17.73 12.33-8.45 3.89-19.32 6.35-27.97 6.96-5.14.36-9.5.07-12.95-.17-.86.02-1.74.05-2.62.05z" class="st13"/><path d="M378.13 458.35c.68-1.41 1.17-3.02 1.38-4.75 1.37.42 2.61.69 3.64.88 2.91.53 4.23.37 3.39 1.08-.84.71-3.85 2.3-7.52 2.71-.29.04-.59.07-.89.08m-90.27-93.98c2.94.14 7.54.66 12.4 1.72 5.72 1.25 11.8 3.25 18.15 6.92 6.35 3.67 12.96 9 17.77 14.88 4.81 5.88 7.82 12.29 10.93 20.52 3.11 8.22 6.33 18.26 10.38 25.74 2.88 5.33 6.18 9.37 9.53 12.36-3.38.68-6.73 1.97-9.19 4.41-1.3-1.22-2.54-2.67-3.66-4.4-3.49-5.37-5.95-13.48-9.04-24.01-3.09-10.54-6.82-23.5-13.64-32.12-6.83-8.62-16.76-12.9-25.27-16.36-5.48-2.23-10.37-4.12-14.09-5.6-1.93-1.39-3.45-2.77-4.27-4.06z" style="fill-rule:evenodd;clip-rule:evenodd;fill:#973342"/><path d="M381.11 389.98c.08 3.91.38 8.11 1.05 12.02a54.854 54.854 0 0 0 8.93 21.89c3.97 5.76 8.47 9.98 10.9 14 1.91 3.16 2.52 6.2 2.78 8.81 2.96-5.86-2.88-12.1-6.62-16.44-3.18-3.69-7.16-8.6-10.34-15.74-3.32-7.45-5.58-15.51-6.7-24.54M398.33 467.24c-3.1 1.68-8.11 3.45-13.66 4.01-6.1.61-12.84-.26-18.98-2.58-6.14-2.31-11.67-6.07-16.09-10.54-4.43-4.46-7.75-9.63-8.84-14.89-.09-.43-.16-.87-.22-1.3 1.44 1.91 2.84 3.82 4.08 5.52 6.29 7.01 9.1 11.26 17.17 16.23.23-5.84-5.16-8.85 11.5-11.42-.56 6.47-3.17 9.07-8.58 12.91 16.65 5.78 24.63.83 33.62 2.06" class="st15"/><path d="M365.27 464.79c-.39-.04-.76-.12-1.12-.23-.92-.29-1.72-.77-2.36-1.58-.18-5.38-4.48-8.25 11.5-10.71-.54 6.25-2.99 8.89-8.02 12.52" class="st0"/><path d="M340.86 371.77c2.24 1.59 5.34 3.83 8.59 7.15 4.84 4.95 10 12.31 13.19 20.87 3.19 8.55 4.41 18.3 6.53 26.58 2.13 8.28 5.16 15.09 8.69 19.26l.11.13h.54c.12.32.23.63.33.95 3.28 3.35 6.93 4.61 10.7 4.73 1.48.05 2.97-.09 4.24-.62-.97-2.9-5.08-5.76-8.25-8.57-7.08-6.28-10.2-14.89-12.63-24.29-4.63-17.88-11.08-40.98-32.04-46.19" style="fill-rule:evenodd;clip-rule:evenodd;fill:#eaaab5"/><path d="M145.29 441.38c-2.95-3.69-6.39-8.11-10.09-12.98a938.024 938.024 0 0 1-18.09-24.61c-6.44-9.08-13.21-18.98-17.92-27.87-4.72-8.89-7.38-16.77-8.79-21.8-1.41-5.03-1.57-7.21-1.65-8.38-.08-1.17-.07-1.33-1.01.36-.93 1.7-2.8 5.26-3.93 8.65-1.12 3.4-1.49 6.63-1.74 8.11-.25 1.48-.38 1.19-1.64-3.77-1.27-4.96-3.67-14.61-5.27-23.75-1.6-9.14-2.39-17.79-2.72-22.15-.33-4.36-.21-4.45-1.24-3.47s-3.21 3.01-4.69 5.15c-1.48 2.14-2.27 4.38-2.68 5.51-.41 1.13-.44 1.14-.48-3.88-.05-5.02-.11-15.07.61-23.44.72-8.37 2.21-15.06 3.15-18.66.94-3.6 1.31-4.12 1.19-4.2-.12-.08-.74.29-2.47 1.32-1.73 1.03-4.58 2.73-7.14 4.91-2.56 2.18-4.83 4.83-5.97 6.15-1.14 1.32-1.14 1.32-1-2.31.14-3.64.42-10.91 1.42-19.69 1-8.78 2.72-19.07 5.93-28.04 2.66-7.43 6.34-13.96 9.54-20.34-18.9 15-21.1 67.66-18.03 83.67 2.57-5.31 3.73-13.95 11.45-17.64-4.35 21.39-2.69 37.69.63 56.47 1.37-4.61 4.08-13.66 5.69-16.67-1.22 12.62 9.71 56.14 18.75 66.47-1.29-6.66.11-16.82-.05-20.79 17.89 35.48 31.94 51.07 58.6 78.51l-.36-.84m88.05 43.83c-9.79-7.51-25.74-28.88-27.89-41.87 9.08 8.9 26.91 32.05 81.21 66.3-3.08-2.53-6.98-5.61-11.53-9.37-12.77-10.52-30.64-26.3-44.77-39.25-14.13-12.95-24.52-23.07-30.23-28.97-5.71-5.9-6.75-7.57-6.85-7.16-.1.4.74 2.88 2.74 8.77 2 5.88 5.16 15.18 8.62 22.46 3.46 7.29 7.21 12.56 9.13 14.99 1.91 2.42 1.99 1.99-2.27-1.08-4.25-3.07-12.83-8.77-23.83-16.67-11-7.89-24.41-17.97-33.93-27.07-9.52-9.1-15.15-17.2-17.87-20.87-2.72-3.66-2.53-2.88-1.58.89.95 3.77 2.67 10.54 8.08 18.61.26.38.52.77.8 1.16 14.82 14.99 62.98 51.22 90.17 59.13z" class="st0"/><path d="M129.76 164.97c8.77 2.98 25.71 8.72 38.99 11.71 13.28 2.99 22.89 3.24 32.02 2.65 9.13-.59 17.76-2.01 20.8-2.27 3.04-.26.47.64-3.92 3.84-4.39 3.2-10.6 8.7-17.17 15.74-6.57 7.04-13.5 15.61-19.18 23.67-5.68 8.07-10.09 15.62-11.88 18.39-1.78 2.77-.94.75-.09-.58s1.7-1.98 1.26-2.33c-.44-.34-2.17-.39-7.73-1.8-5.56-1.41-14.94-4.2-25.23-9.37-10.29-5.17-21.49-12.72-31.51-22.54-10.02-9.82-18.84-21.9-23.8-31-4.96-9.1-6.04-15.22-1.58-16.6 4.45-1.39 14.45 1.96 21.88 3.93 7.43 1.97 12.3 2.56 15.04 2.96 2.74.41 3.34.62 12.1 3.6" class="st13"/><path d="M189.01 180.25c-14.35-1.1-28.17-6.19-40.26-12.52-33.76-17.68-63.15-49.2-82.6-63.24-18.43-13.3-24.14 5.62-19.27 21.2 13.49 43.14 72.71 101.16 120.18 99.3-10.73-4.4-32.95-21.03-36.99-27.64 8.18 2.59 44.59 14.43 52.62 3.19-2.59.04-22.19-6.15-23.8-11.58 8.34 1.17 27.52.51 30.12-8.71" class="st5"/><path d="M232.67 157.09c11.07 2.24 25.76 4.29 36.59 6.41 12.42 2.43 19.75 4.97 23.76 6.49 4.01 1.52 4.71 2.01 3.12-.36-1.59-2.37-5.45-7.6-12.1-13.52-6.65-5.91-16.07-12.5-21.76-16.12-5.69-3.62-7.65-4.26-.34-3.89 7.3.37 23.86 1.75 36.61 4.95s21.68 8.22 29.91 13.21c8.22 4.99 15.73 9.96 19.21 12.55 3.47 2.6 2.92 2.83-1.47-3.84s-12.61-20.25-29-33.08c-15.5-12.13-38.3-23.6-56.91-29.18 10.16 1.72 22.1 4.71 35.68 10.39 18.36 7.68 39.7 20.29 55.26 33.11 15.56 12.82 25.36 25.86 30.92 34.53 5.56 8.68 6.89 12.99 7.5 12.07 2.7-4.07 1.63-16.14 10.55-25.57 4.77-5.04 11.56-7.04 18-5.56 6.43 1.48 12.51 6.45 16.28 9.86 2.43 2.2 3.91 3.76 4 3.14-9.25-21.63-43.32-38.34-52.37-8.54-.6-4.94-2.41-35.51 31.74-24.44-.97-1.13-1.98-2.27-3.03-3.43-13.72-15.09-34.82-32.62-56.33-45.24-3.79-2.22-7.6-4.3-11.35-6.22-6.67-3.85-13.75-7.45-20.37-10.16-6.2-2.54-12-4.31-17.19-5.51-2.07-.68-3.93-1.27-5.56-1.76-1.55-.47-2.89-.85-4.02-1.15-1.08-.11-2.16-.21-3.23-.29.98.37 2.18.88 3.54 1.49l.48.22.03.01.28.13.18.09.1.05.29.13.12.06.17.08.86.41.02.01.01.01.3.15.22.11.09.04.31.15.15.07.16.08.32.16.08.04.56.28.32.16.25.13.07.04.33.17.18.09.15.08.33.17.1.05.23.12.34.18.03.01.31.17.29.15.05.03.34.18.21.11.13.07.34.19.03.01.32.18.35.19.05.03.3.17.32.18.03.02.35.2.24.13.11.07.35.2.15.09.2.11.35.2.07.04.28.16.34.2.01.01.08.05.41.24.12.07.09.06.35.21.18.11.17.11.35.21.09.06.26.16.35.22.01.01.49.31.12.08.07.04.35.22c7.39 4.71 14.03 10.21 15.21 14.96-.41-.19-.83-.38-1.24-.57 1 .69 1.95 1.36 2.83 2 7.83 5.73 9.99 9.06 11.02 10.63 1.03 1.57.93 1.39-5.86-1.77-6.79-3.15-20.26-9.28-35.69-13.75-15.44-4.48-32.84-7.3-52.05-6.85-19.2.46-40.21 4.2-60.15 11.13-17.07 5.94-33.36 14.22-43.46 20.42 9.44 18.26 53.37 33.81 67.36 39.27 1.01.45 2.11.91 3.31 1.36.81.37 1.14.61.92.69-.77.02-1.54.03-2.31.04 5.99 1.68 11.76 3.08 16.86 4.23.16-.23-.02-.52-.46-.86" class="st13"/></svg>